<svg width="1214" height="370" viewBox="0 0 1214 370" fill="none" xmlns="http://www.w3.org/2000/svg">
<g filter="url(#filter0_d_1265_25)">
<path d="M387.402 242.269C383.266 242.269 380.07 241.141 377.814 238.885C375.558 236.629 374.43 233.386 374.43 229.156V162.745H352.293C345.149 162.745 341.577 159.22 341.577 152.17C341.577 145.12 345.149 141.595 352.293 141.595H422.511C429.655 141.595 433.227 145.12 433.227 152.17C433.227 159.22 429.655 162.745 422.511 162.745H400.374V229.156C400.374 233.386 399.246 236.629 396.99 238.885C394.828 241.141 391.632 242.269 387.402 242.269ZM466.708 242.551C458.248 242.551 450.916 241.094 444.712 238.18C438.602 235.172 433.902 230.942 430.612 225.49C427.322 220.038 425.677 213.599 425.677 206.173C425.677 199.123 427.228 192.872 430.33 187.42C433.526 181.968 437.85 177.738 443.302 174.73C448.848 171.628 455.146 170.077 462.196 170.077C469.152 170.077 475.168 171.534 480.244 174.448C485.414 177.362 489.362 181.545 492.088 186.997C494.908 192.355 496.318 198.653 496.318 205.891C496.318 209.557 494.156 211.39 489.832 211.39H449.647C450.493 215.902 452.373 219.145 455.287 221.119C458.201 223.093 462.243 224.08 467.413 224.08C469.387 224.08 471.737 223.845 474.463 223.375C477.189 222.905 479.774 222.153 482.218 221.119C485.226 219.991 487.764 219.991 489.832 221.119C491.9 222.153 493.263 223.798 493.921 226.054C494.673 228.216 494.579 230.472 493.639 232.822C492.793 235.078 491.054 236.817 488.422 238.039C485.132 239.637 481.607 240.765 477.847 241.423C474.181 242.175 470.468 242.551 466.708 242.551ZM463.324 186.292C459.564 186.292 456.462 187.42 454.018 189.676C451.668 191.932 450.164 195.222 449.506 199.546H475.732C475.45 195.128 474.228 191.838 472.066 189.676C469.998 187.42 467.084 186.292 463.324 186.292ZM542.522 242.551C534.72 242.551 527.905 241.094 522.077 238.18C516.343 235.266 511.878 231.083 508.682 225.631C505.486 220.179 503.888 213.693 503.888 206.173C503.888 198.653 505.486 192.214 508.682 186.856C511.878 181.404 516.343 177.268 522.077 174.448C527.905 171.534 534.72 170.077 542.522 170.077C545.248 170.077 548.115 170.359 551.123 170.923C554.131 171.393 557.233 172.333 560.429 173.743C562.591 174.589 564.142 175.905 565.082 177.691C566.022 179.383 566.398 181.216 566.21 183.19C566.116 185.164 565.552 186.95 564.518 188.548C563.578 190.146 562.215 191.227 560.429 191.791C558.737 192.355 556.81 192.12 554.648 191.086C551.546 189.676 548.397 188.971 545.201 188.971C540.219 188.971 536.365 190.475 533.639 193.483C530.913 196.491 529.55 200.721 529.55 206.173C529.55 211.719 530.913 216.043 533.639 219.145C536.365 222.153 540.219 223.657 545.201 223.657C546.705 223.657 548.256 223.516 549.854 223.234C551.452 222.858 553.05 222.294 554.648 221.542C556.904 220.508 558.831 220.32 560.429 220.978C562.121 221.542 563.437 222.623 564.377 224.221C565.411 225.725 565.975 227.464 566.069 229.438C566.257 231.412 565.881 233.292 564.941 235.078C564.001 236.77 562.403 238.039 560.147 238.885C556.951 240.295 553.896 241.235 550.982 241.705C548.068 242.269 545.248 242.551 542.522 242.551ZM587.836 242.269C583.794 242.269 580.692 241.188 578.53 239.026C576.462 236.864 575.428 233.715 575.428 229.579V182.908C575.428 174.542 579.517 170.359 587.695 170.359C595.121 170.359 599.163 173.978 599.821 181.216C602.171 177.644 605.273 174.918 609.127 173.038C613.075 171.064 617.446 170.077 622.24 170.077C630.512 170.077 636.622 172.521 640.57 177.409C644.612 182.297 646.633 189.817 646.633 199.969V229.579C646.633 233.715 645.552 236.864 643.39 239.026C641.228 241.188 638.126 242.269 634.084 242.269C630.042 242.269 626.94 241.188 624.778 239.026C622.616 236.864 621.535 233.715 621.535 229.579V200.956C621.535 196.726 620.783 193.718 619.279 191.932C617.869 190.146 615.754 189.253 612.934 189.253C609.174 189.253 606.166 190.475 603.91 192.919C601.654 195.269 600.526 198.465 600.526 202.507V229.579C600.526 238.039 596.296 242.269 587.836 242.269ZM696.045 242.551C688.337 242.551 681.616 241.094 675.882 238.18C670.148 235.266 665.683 231.083 662.487 225.631C659.291 220.179 657.693 213.74 657.693 206.314C657.693 198.794 659.291 192.355 662.487 186.997C665.683 181.545 670.148 177.362 675.882 174.448C681.616 171.534 688.337 170.077 696.045 170.077C703.753 170.077 710.474 171.534 716.208 174.448C721.942 177.362 726.36 181.545 729.462 186.997C732.658 192.355 734.256 198.794 734.256 206.314C734.256 213.74 732.658 220.179 729.462 225.631C726.36 231.083 721.942 235.266 716.208 238.18C710.474 241.094 703.753 242.551 696.045 242.551ZM696.045 224.08C699.805 224.08 702.907 222.67 705.351 219.85C707.795 217.03 709.017 212.518 709.017 206.314C709.017 200.016 707.795 195.504 705.351 192.778C702.907 189.958 699.805 188.548 696.045 188.548C692.191 188.548 689.042 189.958 686.598 192.778C684.154 195.504 682.932 200.016 682.932 206.314C682.932 212.518 684.154 217.03 686.598 219.85C689.042 222.67 692.191 224.08 696.045 224.08ZM797.645 242.551C786.647 242.551 777.2 240.436 769.304 236.206C761.408 231.976 755.345 226.007 751.115 218.299C746.979 210.591 744.911 201.567 744.911 191.227C744.911 180.887 746.979 171.91 751.115 164.296C755.345 156.588 761.408 150.619 769.304 146.389C777.2 142.159 786.647 140.044 797.645 140.044C801.969 140.044 806.434 140.561 811.04 141.595C815.74 142.535 819.876 143.992 823.448 145.966C826.08 147.376 827.913 149.162 828.947 151.324C829.981 153.486 830.357 155.695 830.075 157.951C829.793 160.207 828.947 162.228 827.537 164.014C826.221 165.8 824.529 167.022 822.461 167.68C820.393 168.244 818.137 167.915 815.693 166.693C810.147 163.967 804.46 162.604 798.632 162.604C789.89 162.604 783.31 165.095 778.892 170.077C774.474 174.965 772.265 182.015 772.265 191.227C772.265 200.533 774.474 207.677 778.892 212.659C783.31 217.547 789.89 219.991 798.632 219.991C801.076 219.991 803.708 219.709 806.528 219.145C809.348 218.487 812.121 217.5 814.847 216.184C817.667 214.962 820.158 214.633 822.32 215.197C824.576 215.761 826.409 216.889 827.819 218.581C829.229 220.273 830.075 222.247 830.357 224.503C830.733 226.665 830.451 228.827 829.511 230.989C828.571 233.151 826.832 234.89 824.294 236.206C821.004 238.18 816.915 239.731 812.027 240.859C807.233 241.987 802.439 242.551 797.645 242.551ZM855.24 242.269C851.198 242.269 848.096 241.188 845.934 239.026C843.866 236.864 842.832 233.715 842.832 229.579V153.016C842.832 144.556 846.968 140.326 855.24 140.326C859.282 140.326 862.384 141.407 864.546 143.569C866.802 145.731 867.93 148.88 867.93 153.016V180.229C872.912 173.461 880.15 170.077 889.644 170.077C897.916 170.077 904.026 172.521 907.974 177.409C912.016 182.297 914.037 189.817 914.037 199.969V229.579C914.037 233.715 912.956 236.864 910.794 239.026C908.632 241.188 905.53 242.269 901.488 242.269C897.446 242.269 894.344 241.188 892.182 239.026C890.02 236.864 888.939 233.715 888.939 229.579V200.956C888.939 196.726 888.187 193.718 886.683 191.932C885.273 190.146 883.158 189.253 880.338 189.253C876.578 189.253 873.57 190.475 871.314 192.919C869.058 195.269 867.93 198.465 867.93 202.507V229.579C867.93 238.039 863.7 242.269 855.24 242.269ZM940.749 160.348C936.331 160.348 932.9 159.314 930.456 157.246C928.106 155.178 926.931 152.17 926.931 148.222C926.931 144.368 928.106 141.407 930.456 139.339C932.9 137.271 936.331 136.237 940.749 136.237C950.055 136.237 954.708 140.232 954.708 148.222C954.708 152.17 953.486 155.178 951.042 157.246C948.692 159.314 945.261 160.348 940.749 160.348ZM940.749 242.269C936.707 242.269 933.605 241.094 931.443 238.744C929.375 236.394 928.341 233.01 928.341 228.592V184.036C928.341 179.618 929.375 176.234 931.443 173.884C933.605 171.534 936.707 170.359 940.749 170.359C944.791 170.359 947.893 171.534 950.055 173.884C952.311 176.234 953.439 179.618 953.439 184.036V228.592C953.439 233.01 952.358 236.394 950.196 238.744C948.034 241.094 944.885 242.269 940.749 242.269ZM994.364 242.551C985.246 242.551 978.572 240.154 974.342 235.36C970.112 230.472 967.997 223.14 967.997 213.364V153.016C967.997 144.556 972.133 140.326 980.405 140.326C984.447 140.326 987.549 141.407 989.711 143.569C991.967 145.731 993.095 148.88 993.095 153.016V212.518C993.095 215.996 993.753 218.534 995.069 220.132C996.479 221.73 998.265 222.529 1000.43 222.529C1001.09 222.529 1001.74 222.482 1002.4 222.388C1003.15 222.2 1003.95 222.059 1004.8 221.965C1006.49 221.965 1007.71 222.576 1008.46 223.798C1009.22 225.02 1009.59 227.511 1009.59 231.271C1009.59 234.561 1008.93 237.052 1007.62 238.744C1006.3 240.342 1004.28 241.376 1001.56 241.846C1000.8 242.034 999.722 242.175 998.312 242.269C996.902 242.457 995.586 242.551 994.364 242.551ZM1054.12 242.551C1045.66 242.551 1038.32 241.094 1032.12 238.18C1026.01 235.172 1021.31 230.942 1018.02 225.49C1014.73 220.038 1013.09 213.599 1013.09 206.173C1013.09 199.123 1014.64 192.872 1017.74 187.42C1020.93 181.968 1025.26 177.738 1030.71 174.73C1036.26 171.628 1042.55 170.077 1049.6 170.077C1056.56 170.077 1062.58 171.534 1067.65 174.448C1072.82 177.362 1076.77 181.545 1079.5 186.997C1082.32 192.355 1083.73 198.653 1083.73 205.891C1083.73 209.557 1081.56 211.39 1077.24 211.39H1037.06C1037.9 215.902 1039.78 219.145 1042.7 221.119C1045.61 223.093 1049.65 224.08 1054.82 224.08C1056.8 224.08 1059.15 223.845 1061.87 223.375C1064.6 222.905 1067.18 222.153 1069.63 221.119C1072.63 219.991 1075.17 219.991 1077.24 221.119C1079.31 222.153 1080.67 223.798 1081.33 226.054C1082.08 228.216 1081.99 230.472 1081.05 232.822C1080.2 235.078 1078.46 236.817 1075.83 238.039C1072.54 239.637 1069.02 240.765 1065.26 241.423C1061.59 242.175 1057.88 242.551 1054.12 242.551ZM1050.73 186.292C1046.97 186.292 1043.87 187.42 1041.43 189.676C1039.08 191.932 1037.57 195.222 1036.91 199.546H1063.14C1062.86 195.128 1061.64 191.838 1059.47 189.676C1057.41 187.42 1054.49 186.292 1050.73 186.292Z" fill="white"/>
<path d="M43.0418 219.867H49.4279V256.96C49.4279 259.182 50.7596 261.236 52.8698 262.068C53.5368 262.345 54.2572 262.512 54.98 262.512C56.4232 262.512 57.8664 261.957 58.9214 260.902L99.9562 219.867H136.327V236.748C136.327 248.075 145.543 257.294 156.873 257.294H230.949L262.044 288.39C263.099 289.445 264.542 290 265.985 290C266.708 290 267.429 289.888 268.096 289.556C270.15 288.724 271.538 286.67 271.538 284.448V257.239H275.147C286.474 257.239 295.693 248.022 295.693 236.693V160.178C295.693 148.851 286.476 139.631 275.147 139.631H222.23V95.0436C222.23 81.2184 211.014 70.0002 197.186 70.0002H43.0434C29.2158 69.9444 18 81.2178 18 95.0436V194.827C18 208.655 29.2158 219.87 43.0434 219.87L43.0418 219.867ZM222.172 194.826V150.793H275.089C280.309 150.793 284.529 155.013 284.529 160.233V236.808C284.529 242.027 280.309 246.248 275.089 246.248H265.928C262.875 246.248 260.376 248.746 260.376 251.8V271.123L237.111 247.858C236.056 246.803 234.669 246.248 233.17 246.248L156.875 246.245C151.655 246.245 147.435 242.025 147.435 236.805V219.924H197.133C210.958 219.868 222.174 208.653 222.174 194.827L222.172 194.826ZM29.1024 95.0424C29.1024 87.3243 35.3772 81.1054 43.0395 81.1054H197.129C204.847 81.1054 211.066 87.3802 211.066 95.0424V194.826C211.066 202.544 204.791 208.763 197.129 208.763L97.6252 208.765C96.1263 208.765 94.7388 209.376 93.6837 210.376L60.4789 243.58V214.316C60.4789 211.263 57.9807 208.765 54.927 208.765H43.0418C35.3772 208.765 29.1024 202.49 29.1024 194.827V95.0424Z" fill="#C77DFF"/>
<path d="M145.544 172.617C146.655 173.728 148.042 174.227 149.485 174.227C150.929 174.227 152.318 173.672 153.427 172.617L177.192 148.852C179.358 146.686 179.358 143.188 177.192 141.022L153.427 117.258C151.261 115.092 147.763 115.092 145.598 117.258C143.432 119.423 143.432 122.921 145.598 125.087L165.421 144.91L145.598 164.734C143.378 166.953 143.378 170.451 145.544 172.617H145.544Z" fill="white"/>
<path d="M86.7996 172.617C87.9105 173.728 89.2979 174.227 90.7411 174.227C92.1843 174.227 93.574 173.672 94.6826 172.617C96.8485 170.451 96.8485 166.953 94.6826 164.787L74.8592 144.964L94.6826 125.14C96.8485 122.975 96.8485 119.477 94.6826 117.311C92.5167 115.145 89.0191 115.145 86.8532 117.311L63.0883 141.076C60.9224 143.242 60.9224 146.739 63.0883 148.905L86.7996 172.617Z" fill="white"/>
<path d="M107.176 183.718C107.732 183.941 108.343 183.995 108.954 183.995C111.288 183.995 113.451 182.496 114.23 180.218L136.552 113.198C137.495 110.312 135.941 107.147 133.054 106.147C130.168 105.148 127.003 106.758 126.003 109.645L103.679 176.665C102.68 179.609 104.235 182.719 107.177 183.718L107.176 183.718Z" fill="white"/>
</g>
<defs>
<filter id="filter0_d_1265_25" x="-4" y="0" width="1222" height="378" filterUnits="userSpaceOnUse" color-interpolation-filters="sRGB">
<feFlood flood-opacity="0" result="BackgroundImageFix"/>
<feColorMatrix in="SourceAlpha" type="matrix" values="0 0 0 0 0 0 0 0 0 0 0 0 0 0 0 0 0 0 127 0" result="hardAlpha"/>
<feOffset dy="4"/>
<feGaussianBlur stdDeviation="2"/>
<feComposite in2="hardAlpha" operator="out"/>
<feColorMatrix type="matrix" values="0 0 0 0 0 0 0 0 0 0 0 0 0 0 0 0 0 0 0.25 0"/>
<feBlend mode="normal" in2="BackgroundImageFix" result="effect1_dropShadow_1265_25"/>
<feBlend mode="normal" in="SourceGraphic" in2="effect1_dropShadow_1265_25" result="shape"/>
</filter>
</defs>
</svg>
